PathFileType	4	(X/Y/Z)	 2.8Hzlow3min.trc
DataRate	CameraRate	NumFrames	NumMarkers	Units	OrigDataRate	OrigDataStartFrame	OrigNumFrames
200	200	11	35	m	200	751	1000
Frame#	Time	C7			LSH			RSH			MAN			RASI			LASI			HIPR			HIPL			RPSI			LPSI			COX			RTHI1			RTHI2			RTHI3			RTHI4			RSHA1			RSHA2			RSHA3			RSHA4			RHEEL			RMET5			RMET1			RTOE			LTHI1			LTHI2			LTHI3			LTHI4			LSHA1			LSHA2			LSHA3			LSHA4			LHEEL			LMET5			LMET1			LTOE			
		X1	Y1	Z1	X2	Y2	Z2	X3	Y3	Z3	X4	Y4	Z4	X5	Y5	Z5	X6	Y6	Z6	X7	Y7	Z7	X8	Y8	Z8	X9	Y9	Z9	X10	Y10	Z10	X11	Y11	Z11	X12	Y12	Z12	X13	Y13	Z13	X14	Y14	Z14	X15	Y15	Z15	X16	Y16	Z16	X17	Y17	Z17	X18	Y18	Z18	X19	Y19	Z19	X20	Y20	Z20	X21	Y21	Z21	X22	Y22	Z22	X23	Y23	Z23	X24	Y24	Z24	X25	Y25	Z25	X26	Y26	Z26	X27	Y27	Z27	X28	Y28	Z28	X29	Y29	Z29	X30	Y30	Z30	X31	Y31	Z31	X32	Y32	Z32	X33	Y33	Z33	X34	Y34	Z34	X35	Y35	Z35	
751	3.7550	-0.300200	1.658354	-0.502489	-0.290655	1.649220	-0.717456	-0.233809	1.649438	-0.315303	-0.159650	1.593013	-0.521980	-0.155951	1.150695	-0.401706	-0.169223	1.144740	-0.617943	-0.207953	1.204481	-0.351745	-0.238034	1.199927	-0.671988	-0.341850	1.182248	-0.441230	-0.355150	1.174898	-0.554838	-0.355003	1.187883	-0.494353	-0.236209	0.892783	-0.309665	-0.219715	0.836641	-0.298102	-0.156613	0.851727	-0.301098	-0.165676	0.910826	-0.315521	-0.310288	0.462191	-0.264243	-0.326858	0.422097	-0.269076	-0.268648	0.405250	-0.271629	-0.256698	0.443705	-0.270898	-0.430256	0.127116	-0.322975	-0.266114	0.033160	-0.268851	-0.228600	0.044099	-0.352921	-0.200705	0.033439	-0.353129	-0.248819	0.883419	-0.717161	-0.232112	0.824779	-0.726671	-0.168743	0.836644	-0.723420	-0.176427	0.895654	-0.713939	-0.321918	0.425690	-0.727437	-0.338790	0.388910	-0.725256	-0.279358	0.369426	-0.717400	-0.269875	0.412500	-0.720997	-0.456742	0.116514	-0.651538	-0.300977	0.030000	-0.727944	-0.242901	0.040307	-0.657299	-0.216338	0.031832	-0.664717	
752	3.7600	-0.300290	1.655163	-0.502307	-0.290586	1.645775	-0.717684	-0.233502	1.645923	-0.315070	-0.159938	1.589165	-0.521910	-0.156351	1.147407	-0.401635	-0.169618	1.141410	-0.617995	-0.208427	1.200862	-0.351569	-0.238568	1.196247	-0.672038	-0.342326	1.178268	-0.441226	-0.355664	1.170867	-0.554787	-0.355503	1.183788	-0.494329	-0.236173	0.889474	-0.309860	-0.219660	0.833389	-0.298287	-0.156619	0.848480	-0.301293	-0.165731	0.907578	-0.315672	-0.310184	0.459037	-0.264175	-0.326827	0.418979	-0.268948	-0.268677	0.402043	-0.271698	-0.256656	0.440462	-0.271021	-0.431479	0.124210	-0.322790	-0.265995	0.031726	-0.267212	-0.228212	0.043234	-0.352687	-0.200328	0.032299	-0.353229	-0.248690	0.880135	-0.717281	-0.231857	0.821527	-0.726771	-0.168511	0.833539	-0.723564	-0.176320	0.892525	-0.714097	-0.321480	0.422668	-0.727670	-0.338405	0.385920	-0.725498	-0.279012	0.366372	-0.717488	-0.269468	0.409428	-0.721121	-0.457487	0.113762	-0.651582	-0.300533	0.028984	-0.729434	-0.241824	0.039498	-0.657147	-0.215342	0.030858	-0.664150	
753	3.7650	-0.300422	1.651792	-0.502152	-0.290524	1.642151	-0.717935	-0.233240	1.642273	-0.314855	-0.160206	1.585180	-0.521861	-0.156734	1.143925	-0.401569	-0.169993	1.137924	-0.618023	-0.208910	1.197030	-0.351373	-0.239049	1.192382	-0.672097	-0.342801	1.174104	-0.441236	-0.356184	1.166688	-0.554747	-0.355990	1.179507	-0.494313	-0.236213	0.885998	-0.310045	-0.219769	0.830002	-0.298352	-0.156732	0.845049	-0.301415	-0.165868	0.904150	-0.315750	-0.310199	0.455718	-0.264179	-0.326913	0.415732	-0.268808	-0.268777	0.398686	-0.271737	-0.256716	0.437068	-0.271145	-0.432929	0.121228	-0.322352	-0.265910	0.030552	-0.265618	-0.228090	0.042653	-0.352498	-0.200176	0.031529	-0.353372	-0.248685	0.876672	-0.717379	-0.231750	0.818082	-0.726857	-0.168419	0.830232	-0.723781	-0.176331	0.889208	-0.714334	-0.321096	0.419392	-0.727901	-0.338059	0.382653	-0.725686	-0.278703	0.363070	-0.717508	-0.269114	0.406110	-0.721221	-0.458371	0.110916	-0.651566	-0.300145	0.028137	-0.730775	-0.241054	0.038890	-0.656803	-0.214572	0.030124	-0.663426	
754	3.7700	-0.300608	1.648307	-0.502046	-0.290474	1.638364	-0.718205	-0.233030	1.638538	-0.314669	-0.160392	1.581162	-0.521828	-0.157105	1.140269	-0.401510	-0.170360	1.134307	-0.618039	-0.209411	1.193002	-0.351165	-0.239486	1.188356	-0.672161	-0.343276	1.169776	-0.441265	-0.356705	1.162392	-0.554728	-0.356470	1.175082	-0.494315	-0.236336	0.882380	-0.310183	-0.220029	0.826506	-0.298288	-0.156933	0.841471	-0.301442	-0.166072	0.900572	-0.315740	-0.310340	0.452307	-0.264249	-0.327114	0.412413	-0.268660	-0.268973	0.395268	-0.271741	-0.256897	0.433614	-0.271278	-0.434552	0.118235	-0.321733	-0.265916	0.029608	-0.264259	-0.228272	0.042229	-0.352454	-0.200322	0.030998	-0.353575	-0.248790	0.873049	-0.717451	-0.231781	0.814473	-0.726927	-0.168459	0.826746	-0.724076	-0.176446	0.885726	-0.714657	-0.320801	0.415902	-0.728096	-0.337805	0.379175	-0.725795	-0.278493	0.359552	-0.717437	-0.268848	0.402576	-0.721273	-0.459435	0.108031	-0.651429	-0.299922	0.027487	-0.731876	-0.240763	0.038472	-0.656290	-0.214127	0.029619	-0.662738	
755	3.7750	-0.300838	1.644749	-0.501995	-0.290431	1.634442	-0.718496	-0.232890	1.634770	-0.314527	-0.160503	1.577122	-0.521810	-0.157473	1.136481	-0.401445	-0.170715	1.130584	-0.618055	-0.209932	1.188798	-0.350947	-0.239893	1.184196	-0.672229	-0.343757	1.165328	-0.441314	-0.357227	1.158007	-0.554733	-0.356943	1.170551	-0.494324	-0.236555	0.878669	-0.310319	-0.220421	0.822930	-0.298079	-0.157203	0.837776	-0.301368	-0.166331	0.896883	-0.315637	-0.310612	0.448870	-0.264363	-0.327434	0.409093	-0.268488	-0.269268	0.391850	-0.271712	-0.257196	0.430158	-0.271431	-0.436305	0.115243	-0.320977	-0.266024	0.028863	-0.263213	-0.228720	0.041951	-0.352558	-0.200726	0.030661	-0.353790	-0.248976	0.869294	-0.717493	-0.231923	0.810722	-0.726975	-0.168605	0.823102	-0.724442	-0.176638	0.882096	-0.715059	-0.320619	0.412268	-0.728214	-0.337694	0.375565	-0.725800	-0.278440	0.355870	-0.717265	-0.268706	0.398861	-0.721252	-0.460659	0.105163	-0.651119	-0.299943	0.027001	-0.732706	-0.240919	0.038178	-0.655783	-0.214015	0.029301	-0.662174	
756	3.7800	-0.301098	1.641158	-0.501997	-0.290394	1.630425	-0.718779	-0.232829	1.631015	-0.314437	-0.160533	1.573064	-0.521793	-0.157844	1.132580	-0.401372	-0.171060	1.126772	-0.618080	-0.210480	1.184449	-0.350716	-0.240294	1.179937	-0.672328	-0.344247	1.160797	-0.441382	-0.357753	1.153563	-0.554750	-0.357408	1.165959	-0.494340	-0.236907	0.874909	-0.310300	-0.220921	0.819304	-0.297725	-0.157508	0.834018	-0.301200	-0.166627	0.893136	-0.315459	-0.310990	0.445491	-0.264472	-0.327856	0.405816	-0.268290	-0.269641	0.388488	-0.271630	-0.257588	0.426776	-0.271532	-0.438123	0.112218	-0.320208	-0.266224	0.028294	-0.262423	-0.229344	0.041768	-0.352718	-0.201265	0.030463	-0.353990	-0.249211	0.865432	-0.717507	-0.232142	0.806859	-0.726994	-0.168821	0.819327	-0.724860	-0.176878	0.878345	-0.715520	-0.320552	0.408571	-0.728228	-0.337746	0.371919	-0.725690	-0.278572	0.352067	-0.716993	-0.268696	0.395025	-0.721140	-0.461989	0.102270	-0.650574	-0.300177	0.026643	-0.733284	-0.241314	0.038011	-0.655432	-0.214159	0.029087	-0.661729	
757	3.7850	-0.301378	1.637576	-0.502041	-0.290364	1.626372	-0.719050	-0.232806	1.627293	-0.314390	-0.160481	1.569036	-0.521798	-0.158225	1.128588	-0.401285	-0.171394	1.122894	-0.618126	-0.211053	1.179983	-0.350470	-0.240713	1.175608	-0.672462	-0.344748	1.156230	-0.441467	-0.358280	1.149099	-0.554764	-0.357854	1.161356	-0.494347	-0.237383	0.871161	-0.310140	-0.221494	0.815646	-0.297240	-0.157821	0.830262	-0.300977	-0.166948	0.889382	-0.315240	-0.311425	0.442217	-0.264512	-0.328334	0.402623	-0.268063	-0.270077	0.385209	-0.271500	-0.258040	0.423482	-0.271573	-0.439941	0.109106	-0.319535	-0.266469	0.027851	-0.261791	-0.229994	0.041651	-0.352882	-0.201814	0.030321	-0.354162	-0.249461	0.861495	-0.717491	-0.232397	0.802917	-0.726982	-0.169072	0.815454	-0.725298	-0.177132	0.874501	-0.716005	-0.320576	0.404886	-0.728124	-0.337949	0.368311	-0.725464	-0.278886	0.348211	-0.716636	-0.268800	0.391105	-0.720932	-0.463364	0.099311	-0.649812	-0.300550	0.026398	-0.733656	-0.241791	0.037924	-0.655171	-0.214427	0.028932	-0.661437	
758	3.7900	-0.301670	1.634042	-0.502117	-0.290360	1.622332	-0.719293	-0.232828	1.623628	-0.314383	-0.160360	1.565044	-0.521804	-0.158615	1.124537	-0.401186	-0.171719	1.118971	-0.618197	-0.211649	1.175448	-0.350221	-0.241163	1.171236	-0.672621	-0.345253	1.151678	-0.441557	-0.358798	1.144664	-0.554768	-0.358283	1.156802	-0.494355	-0.237918	0.867408	-0.309862	-0.222032	0.811961	-0.296817	-0.158125	0.826543	-0.300732	-0.167281	0.885658	-0.315024	-0.311834	0.439062	-0.264434	-0.328787	0.399495	-0.267831	-0.270538	0.382008	-0.271341	-0.258479	0.420266	-0.271540	-0.441712	0.105895	-0.319000	-0.266712	0.027487	-0.261240	-0.230567	0.041560	-0.352995	-0.202288	0.030217	-0.354234	-0.249695	0.857513	-0.717447	-0.232645	0.798937	-0.726943	-0.169317	0.811527	-0.725718	-0.177370	0.870601	-0.716473	-0.320651	0.401267	-0.727900	-0.338263	0.364819	-0.725132	-0.279337	0.344360	-0.716214	-0.268973	0.387173	-0.720643	-0.464707	0.096258	-0.648871	-0.300977	0.026231	-0.733881	-0.242207	0.037847	-0.654872	-0.214695	0.028813	-0.661275	
759	3.7950	-0.301937	1.630527	-0.502198	-0.290375	1.618355	-0.719493	-0.232904	1.620021	-0.314402	-0.160213	1.561017	-0.521818	-0.159020	1.120452	-0.401072	-0.172038	1.115023	-0.618292	-0.212266	1.170876	-0.349965	-0.241660	1.166851	-0.672794	-0.345756	1.147210	-0.441649	-0.359302	1.140305	-0.554755	-0.358685	1.152369	-0.494352	-0.238466	0.863675	-0.309553	-0.222508	0.808281	-0.296463	-0.158413	0.822899	-0.300503	-0.167627	0.882004	-0.314846	-0.312139	0.436005	-0.264248	-0.329176	0.396467	-0.267565	-0.270956	0.378851	-0.271188	-0.258829	0.417098	-0.271455	-0.443413	0.102589	-0.318594	-0.266930	0.027172	-0.260730	-0.231026	0.041526	-0.353062	-0.202641	0.030163	-0.354233	-0.249895	0.853527	-0.717376	-0.232850	0.794954	-0.726884	-0.169520	0.807594	-0.726077	-0.177572	0.866689	-0.716878	-0.320733	0.397775	-0.727574	-0.338626	0.361475	-0.724710	-0.279858	0.340580	-0.715740	-0.269171	0.383296	-0.720284	-0.465970	0.093086	-0.647745	-0.301397	0.026107	-0.734017	-0.242462	0.037787	-0.654560	-0.214885	0.028722	-0.661158	
760	3.8000	-0.302186	1.627051	-0.502270	-0.290440	1.614464	-0.719631	-0.233032	1.616471	-0.314426	-0.160061	1.557054	-0.521851	-0.159445	1.116361	-0.400945	-0.172355	1.111074	-0.618404	-0.212907	1.166323	-0.349710	-0.242216	1.162488	-0.672979	-0.346250	1.142891	-0.441740	-0.359789	1.136072	-0.554705	-0.359070	1.148128	-0.494342	-0.239010	0.860028	-0.309201	-0.222908	0.804634	-0.296210	-0.158687	0.819369	-0.300314	-0.167980	0.878455	-0.314722	-0.312272	0.433055	-0.263961	-0.329440	0.393524	-0.267275	-0.271271	0.375737	-0.271074	-0.259032	0.413973	-0.271336	-0.445014	0.099247	-0.318355	-0.267128	0.026889	-0.260248	-0.231386	0.041490	-0.353084	-0.202885	0.030112	-0.354192	-0.250056	0.849574	-0.717297	-0.232990	0.791019	-0.726816	-0.169662	0.803711	-0.726334	-0.177730	0.862821	-0.717178	-0.320795	0.394425	-0.727160	-0.338979	0.358288	-0.724217	-0.280377	0.336925	-0.715215	-0.269352	0.379546	-0.719858	-0.467116	0.089797	-0.646459	-0.301768	0.026018	-0.734096	-0.242576	0.037737	-0.654264	-0.214970	0.028657	-0.661067	
761	3.8050	-0.302429	1.623631	-0.502326	-0.290555	1.610721	-0.719715	-0.233212	1.613003	-0.314445	-0.159902	1.553115	-0.521901	-0.159890	1.112305	-0.400805	-0.172673	1.107155	-0.618522	-0.213572	1.161834	-0.349462	-0.242824	1.158171	-0.673108	-0.346722	1.138786	-0.441830	-0.360256	1.132015	-0.554606	-0.359429	1.144132	-0.494314	-0.239446	0.856477	-0.309007	-0.223244	0.801067	-0.296034	-0.158959	0.815986	-0.300164	-0.168343	0.875033	-0.314646	-0.312220	0.430169	-0.263629	-0.329558	0.390668	-0.266973	-0.271465	0.372661	-0.271030	-0.259073	0.410877	-0.271260	-0.446503	0.095946	-0.318261	-0.267299	0.026644	-0.259815	-0.231653	0.041462	-0.353105	-0.203042	0.030067	-0.354153	-0.250179	0.845717	-0.717231	-0.233058	0.787185	-0.726752	-0.169740	0.799947	-0.726459	-0.177853	0.859063	-0.717336	-0.320833	0.391218	-0.726668	-0.339281	0.355234	-0.723647	-0.280834	0.333451	-0.714633	-0.269505	0.375964	-0.719362	-0.468134	0.086459	-0.645058	-0.302099	0.025962	-0.734129	-0.242605	0.037712	-0.654026	-0.214958	0.028627	-0.661021	
